<svg xmlns="http://www.w3.org/2000/svg" xmlns:xlink="http://www.w3.org/1999/xlink" width="512" height="512" viewBox="0 0 512 512">
  <defs>
    <style>
      .cls-1 {
        clip-path: url(#clip-spotanalyst);
      }

      .cls-2 {
        fill: #1db954;
      }
    </style>
    <clipPath id="clip-spotanalyst">
      <rect width="512" height="512"/>
    </clipPath>
  </defs>
  <g id="spotanalyst" class="cls-1">
    <g id="Spotanalyst-2" data-name="Spotanalyst" transform="translate(-480 -170)">
      <rect id="Rectangle_1" data-name="Rectangle 1" class="cls-2" width="512" height="512" rx="256" transform="translate(480 170)"/>
      <path id="Icon_metro-chart-dots" data-name="Icon metro-chart-dots" d="M40.416,257.078H305.333v36.45H2.571V1.928H40.416Zm47.307-18.225c-15.676,0-28.384-12.239-28.384-27.337s12.708-27.337,28.384-27.337c.836,0,1.662.042,2.48.11l30.51-48.976a26.486,26.486,0,0,1-4.606-14.922c0-15.1,12.708-27.337,28.384-27.337s28.384,12.239,28.384,27.337a26.485,26.485,0,0,1-4.607,14.922l30.51,48.976q1.237-.106,2.48-.11c.632,0,1.256.027,1.878.066l50.369-84.895a26.509,26.509,0,0,1-4.939-15.409c0-15.1,12.708-27.337,28.384-27.337s28.384,12.239,28.384,27.337-12.708,27.337-28.384,27.337c-.633,0-1.256-.027-1.878-.066l-50.369,84.9a26.508,26.508,0,0,1,4.939,15.409c0,15.1-12.708,27.337-28.384,27.337s-28.384-12.239-28.384-27.337a26.49,26.49,0,0,1,4.606-14.922l-30.51-48.975c-.818.068-1.644.11-2.48.11s-1.662-.042-2.48-.11L111.5,196.594a26.483,26.483,0,0,1,4.606,14.922c0,15.1-12.708,27.337-28.384,27.337Z" transform="translate(582.048 278.272)"/>
    </g>
  </g>
</svg>
